<svg width="175" height="290" viewBox="0 0 175 290" fill="none" xmlns="http://www.w3.org/2000/svg">
<path d="M0 225.004C0.648 225.028 1.512 225.052 2.592 225.076C3.672 225.1 4.752 225.112 5.832 225.112C7.008 225.112 8.136 225.1 9.216 225.076C10.32 225.052 11.1 225.04 11.556 225.04C15.06 225.04 17.664 225.7 19.368 227.02C21.096 228.34 21.96 230.044 21.96 232.132C21.96 232.996 21.78 233.908 21.42 234.868C21.084 235.804 20.496 236.68 19.656 237.496C18.84 238.288 17.7 238.936 16.236 239.44C14.796 239.944 12.972 240.196 10.764 240.196H7.02V239.476H10.404C11.724 239.476 12.72 239.152 13.392 238.504C14.088 237.856 14.556 237.004 14.796 235.948C15.06 234.892 15.192 233.752 15.192 232.528C15.192 230.248 14.892 228.544 14.292 227.416C13.692 226.288 12.672 225.724 11.232 225.724C10.344 225.724 9.768 225.928 9.504 226.336C9.264 226.744 9.144 227.572 9.144 228.82V246.388C9.144 247.348 9.24 248.068 9.432 248.548C9.624 249.004 10.008 249.304 10.584 249.448C11.16 249.592 11.988 249.676 13.068 249.7V250.492C12.276 250.468 11.256 250.444 10.008 250.42C8.76 250.396 7.452 250.384 6.084 250.384C5.004 250.384 3.936 250.396 2.88 250.42C1.848 250.444 0.888 250.468 0 250.492V249.772C0.744 249.724 1.296 249.628 1.656 249.484C2.04 249.34 2.292 249.052 2.412 248.62C2.556 248.188 2.628 247.54 2.628 246.676V228.82C2.628 227.932 2.556 227.284 2.412 226.876C2.292 226.444 2.04 226.156 1.656 226.012C1.296 225.844 0.744 225.748 0 225.724V225.004Z" fill="black"/>
<path d="M37.1945 224.5C39.8345 224.5 42.1385 225.016 44.1065 226.048C46.0745 227.08 47.5985 228.568 48.6785 230.512C49.7825 232.432 50.3345 234.772 50.3345 237.532C50.3345 240.22 49.7705 242.572 48.6425 244.588C47.5385 246.604 45.9905 248.176 43.9985 249.304C42.0065 250.432 39.7265 250.996 37.1585 250.996C34.5425 250.996 32.2385 250.48 30.2465 249.448C28.2785 248.416 26.7425 246.928 25.6385 244.984C24.5585 243.04 24.0185 240.7 24.0185 237.964C24.0185 235.276 24.5825 232.924 25.7105 230.908C26.8625 228.892 28.4225 227.32 30.3905 226.192C32.3585 225.064 34.6265 224.5 37.1945 224.5ZM37.0505 225.148C35.7785 225.148 34.6745 225.688 33.7385 226.768C32.8025 227.848 32.0705 229.336 31.5425 231.232C31.0385 233.128 30.7865 235.324 30.7865 237.82C30.7865 240.364 31.0745 242.584 31.6505 244.48C32.2505 246.352 33.0425 247.804 34.0265 248.836C35.0105 249.844 36.1025 250.348 37.3025 250.348C38.5745 250.348 39.6785 249.808 40.6145 248.728C41.5745 247.648 42.3065 246.16 42.8105 244.264C43.3145 242.344 43.5665 240.148 43.5665 237.676C43.5665 235.108 43.2785 232.888 42.7025 231.016C42.1265 229.144 41.3345 227.704 40.3265 226.696C39.3425 225.664 38.2505 225.148 37.0505 225.148Z" fill="black"/>
<path d="M62.307 224.536C63.795 224.536 64.947 224.692 65.763 225.004C66.579 225.292 67.275 225.604 67.851 225.94C68.139 226.108 68.367 226.24 68.535 226.336C68.727 226.408 68.907 226.444 69.075 226.444C69.459 226.444 69.723 225.916 69.867 224.86H70.695C70.671 225.34 70.635 225.904 70.587 226.552C70.563 227.2 70.539 228.064 70.515 229.144C70.515 230.2 70.515 231.604 70.515 233.356H69.687C69.591 232.06 69.291 230.812 68.787 229.612C68.283 228.412 67.587 227.416 66.699 226.624C65.835 225.832 64.767 225.436 63.495 225.436C62.391 225.436 61.479 225.748 60.759 226.372C60.039 226.972 59.679 227.836 59.679 228.964C59.679 229.876 59.907 230.668 60.363 231.34C60.819 231.988 61.503 232.648 62.415 233.32C63.351 233.992 64.527 234.82 65.943 235.804C67.071 236.548 68.079 237.292 68.967 238.036C69.855 238.78 70.563 239.62 71.091 240.556C71.643 241.492 71.919 242.62 71.919 243.94C71.919 245.524 71.487 246.844 70.623 247.9C69.759 248.932 68.619 249.712 67.203 250.24C65.787 250.744 64.239 250.996 62.559 250.996C60.999 250.996 59.751 250.852 58.815 250.564C57.903 250.276 57.123 249.976 56.475 249.664C55.947 249.328 55.539 249.16 55.251 249.16C54.867 249.16 54.603 249.688 54.459 250.744H53.631C53.679 250.144 53.703 249.448 53.703 248.656C53.727 247.84 53.739 246.796 53.739 245.524C53.763 244.252 53.775 242.632 53.775 240.664H54.603C54.699 242.296 54.963 243.82 55.395 245.236C55.851 246.652 56.535 247.804 57.447 248.692C58.383 249.556 59.619 249.988 61.155 249.988C62.451 249.988 63.507 249.664 64.323 249.016C65.139 248.368 65.547 247.432 65.547 246.208C65.547 244.72 65.043 243.484 64.035 242.5C63.051 241.516 61.779 240.508 60.219 239.476C59.091 238.732 58.035 237.976 57.051 237.208C56.067 236.44 55.275 235.588 54.675 234.652C54.099 233.692 53.811 232.54 53.811 231.196C53.811 229.66 54.207 228.4 54.999 227.416C55.791 226.432 56.835 225.712 58.131 225.256C59.451 224.776 60.843 224.536 62.307 224.536Z" fill="black"/>
<path d="M96.9986 225.004C96.9026 226.324 96.8306 227.596 96.7826 228.82C96.7586 230.044 96.7466 230.98 96.7466 231.628C96.7466 232.156 96.7586 232.648 96.7826 233.104C96.8066 233.56 96.8306 233.956 96.8546 234.292H96.0266C95.5466 232.156 94.9706 230.476 94.2986 229.252C93.6266 228.004 92.8586 227.128 91.9946 226.624C91.1546 226.096 90.2426 225.832 89.2586 225.832H88.8266V246.388C88.8266 247.372 88.9226 248.104 89.1146 248.584C89.3306 249.064 89.7146 249.388 90.2666 249.556C90.8426 249.7 91.6706 249.772 92.7506 249.772V250.492C91.9586 250.468 90.8906 250.444 89.5466 250.42C88.2266 250.396 86.8466 250.384 85.4066 250.384C83.9906 250.384 82.6586 250.396 81.4106 250.42C80.1626 250.444 79.1546 250.468 78.3866 250.492V249.772C79.4666 249.772 80.2946 249.7 80.8706 249.556C81.4466 249.388 81.8306 249.064 82.0226 248.584C82.2146 248.104 82.3106 247.372 82.3106 246.388V225.832H81.9146C80.9066 225.832 79.9826 226.096 79.1426 226.624C78.3026 227.128 77.5466 227.992 76.8746 229.216C76.2026 230.44 75.6146 232.132 75.1106 234.292H74.2826C74.3306 233.956 74.3546 233.56 74.3546 233.104C74.3786 232.648 74.3906 232.156 74.3906 231.628C74.3906 230.98 74.3666 230.044 74.3186 228.82C74.2946 227.596 74.2346 226.324 74.1386 225.004C75.2666 225.028 76.5026 225.052 77.8466 225.076C79.2146 225.1 80.5706 225.112 81.9146 225.112C83.2586 225.112 84.4826 225.112 85.5866 225.112C86.6906 225.112 87.9146 225.112 89.2586 225.112C90.6266 225.112 91.9826 225.1 93.3266 225.076C94.6706 225.052 95.8946 225.028 96.9986 225.004Z" fill="black"/>
<path d="M118.657 225.004C118.561 226.132 118.489 227.224 118.441 228.28C118.417 229.336 118.405 230.14 118.405 230.692C118.405 231.172 118.417 231.64 118.441 232.096C118.465 232.528 118.489 232.9 118.513 233.212H117.685C117.421 231.34 116.989 229.864 116.389 228.784C115.813 227.704 115.093 226.948 114.229 226.516C113.389 226.06 112.453 225.832 111.421 225.832H110.449C109.777 225.832 109.273 225.892 108.937 226.012C108.601 226.108 108.373 226.324 108.253 226.66C108.157 226.996 108.109 227.524 108.109 228.244V247.252C108.109 247.948 108.157 248.476 108.253 248.836C108.373 249.172 108.601 249.4 108.937 249.52C109.273 249.616 109.777 249.664 110.449 249.664H111.925C112.861 249.664 113.749 249.424 114.589 248.944C115.453 248.44 116.221 247.6 116.893 246.424C117.565 245.224 118.069 243.604 118.405 241.564H119.233C119.161 242.38 119.125 243.436 119.125 244.732C119.125 245.308 119.137 246.124 119.161 247.18C119.185 248.236 119.257 249.34 119.377 250.492C118.153 250.444 116.773 250.42 115.237 250.42C113.701 250.396 112.333 250.384 111.133 250.384C110.293 250.384 109.165 250.384 107.749 250.384C106.357 250.384 104.881 250.396 103.321 250.42C101.761 250.42 100.309 250.444 98.9648 250.492V249.772C99.7088 249.724 100.261 249.628 100.621 249.484C101.005 249.34 101.257 249.052 101.377 248.62C101.521 248.188 101.593 247.54 101.593 246.676V228.82C101.593 227.932 101.521 227.284 101.377 226.876C101.257 226.444 101.005 226.156 100.621 226.012C100.261 225.844 99.7088 225.748 98.9648 225.724V225.004C100.309 225.028 101.761 225.052 103.321 225.076C104.881 225.1 106.357 225.112 107.749 225.112C109.165 225.112 110.293 225.112 111.133 225.112C112.237 225.112 113.485 225.112 114.877 225.112C116.293 225.088 117.553 225.052 118.657 225.004ZM113.221 237.316C113.221 237.316 113.221 237.436 113.221 237.676C113.221 237.916 113.221 238.036 113.221 238.036H107.029C107.029 238.036 107.029 237.916 107.029 237.676C107.029 237.436 107.029 237.316 107.029 237.316H113.221ZM114.265 232.564C114.169 233.932 114.121 234.976 114.121 235.696C114.145 236.416 114.157 237.076 114.157 237.676C114.157 238.276 114.169 238.936 114.193 239.656C114.217 240.376 114.277 241.42 114.373 242.788H113.545C113.425 241.924 113.173 241.132 112.789 240.412C112.405 239.692 111.889 239.116 111.241 238.684C110.593 238.252 109.801 238.036 108.865 238.036V237.316C109.801 237.316 110.581 237.064 111.205 236.56C111.829 236.032 112.321 235.408 112.681 234.688C113.065 233.944 113.317 233.236 113.437 232.564H114.265Z" fill="black"/>
<path d="M122.062 225.004C122.711 225.028 123.575 225.052 124.655 225.076C125.735 225.1 126.815 225.112 127.895 225.112C129.071 225.112 130.199 225.1 131.279 225.076C132.383 225.052 133.162 225.04 133.618 225.04C137.122 225.04 139.726 225.568 141.43 226.624C143.158 227.68 144.023 229.24 144.023 231.304C144.023 232.168 143.842 233.02 143.482 233.86C143.146 234.676 142.559 235.432 141.719 236.128C140.903 236.824 139.763 237.376 138.299 237.784C136.859 238.192 135.035 238.396 132.827 238.396H129.37V237.676H132.467C133.787 237.676 134.782 237.412 135.454 236.884C136.15 236.332 136.619 235.612 136.859 234.724C137.123 233.812 137.255 232.804 137.255 231.7C137.255 229.804 136.955 228.34 136.355 227.308C135.755 226.252 134.734 225.724 133.294 225.724C132.406 225.724 131.83 225.928 131.566 226.336C131.326 226.744 131.206 227.572 131.206 228.82V246.676C131.206 247.54 131.267 248.188 131.387 248.62C131.531 249.052 131.783 249.34 132.143 249.484C132.527 249.628 133.091 249.724 133.835 249.772V250.492C133.163 250.444 132.299 250.42 131.243 250.42C130.211 250.396 129.167 250.384 128.111 250.384C126.887 250.384 125.735 250.396 124.655 250.42C123.575 250.42 122.711 250.444 122.062 250.492V249.772C122.807 249.724 123.358 249.628 123.718 249.484C124.102 249.34 124.355 249.052 124.475 248.62C124.619 248.188 124.69 247.54 124.69 246.676V228.82C124.69 227.932 124.619 227.284 124.475 226.876C124.355 226.444 124.102 226.156 123.718 226.012C123.358 225.844 122.807 225.748 122.062 225.724V225.004ZM129.227 237.784C130.163 237.808 131.015 237.856 131.783 237.928C132.551 238 133.235 238.072 133.835 238.144C134.459 238.192 134.998 238.228 135.454 238.252C137.83 238.396 139.595 238.852 140.747 239.62C141.923 240.364 142.667 241.48 142.979 242.968L143.734 246.712C143.95 247.624 144.179 248.272 144.419 248.656C144.659 249.016 144.994 249.184 145.426 249.16C145.69 249.16 145.919 249.112 146.111 249.016C146.303 248.896 146.495 248.728 146.687 248.512L147.191 248.98C146.495 249.724 145.739 250.24 144.923 250.528C144.107 250.84 143.159 250.996 142.079 250.996C140.663 250.996 139.499 250.72 138.587 250.168C137.699 249.616 137.135 248.596 136.895 247.108L136.283 243.508C136.139 242.524 135.946 241.648 135.706 240.88C135.49 240.112 135.191 239.512 134.807 239.08C134.423 238.624 133.882 238.396 133.186 238.396H129.299L129.227 237.784Z" fill="black"/>
<path d="M167.67 224.968V225.688C167.142 225.928 166.578 226.396 165.978 227.092C165.402 227.764 164.766 228.784 164.07 230.152L157.41 243.328H155.358L146.934 227.74C146.526 226.948 146.142 226.42 145.782 226.156C145.422 225.868 145.11 225.724 144.846 225.724V224.968C145.542 225.04 146.262 225.1 147.006 225.148C147.75 225.172 148.566 225.184 149.454 225.184C150.606 225.184 151.842 225.16 153.162 225.112C154.482 225.064 155.694 225.016 156.798 224.968V225.724C156.198 225.724 155.646 225.76 155.142 225.832C154.662 225.904 154.314 226.048 154.098 226.264C153.906 226.48 153.93 226.84 154.17 227.344L159.75 238.036L158.346 239.872L161.73 233.104C162.666 231.256 163.17 229.804 163.242 228.748C163.338 227.668 163.11 226.9 162.558 226.444C162.03 225.964 161.286 225.712 160.326 225.688V224.968C161.19 224.992 161.97 225.016 162.666 225.04C163.386 225.064 164.142 225.076 164.934 225.076C165.438 225.076 165.93 225.064 166.41 225.04C166.89 225.016 167.31 224.992 167.67 224.968ZM160.254 236.992V246.676C160.254 247.54 160.314 248.188 160.434 248.62C160.578 249.052 160.83 249.34 161.19 249.484C161.574 249.628 162.138 249.724 162.882 249.772V250.492C162.21 250.444 161.322 250.42 160.218 250.42C159.138 250.396 158.07 250.384 157.014 250.384C155.838 250.384 154.71 250.396 153.63 250.42C152.574 250.42 151.734 250.444 151.11 250.492V249.772C151.854 249.724 152.406 249.628 152.766 249.484C153.15 249.34 153.402 249.052 153.522 248.62C153.666 248.188 153.738 247.54 153.738 246.676V239.296L157.266 241.528L160.254 236.992Z" fill="black"/>
<path d="M170.774 245.128C171.806 245.128 172.61 245.38 173.186 245.884C173.786 246.388 174.086 247.108 174.086 248.044C174.086 249.004 173.786 249.736 173.186 250.24C172.61 250.744 171.806 250.996 170.774 250.996C169.718 250.996 168.902 250.744 168.326 250.24C167.75 249.736 167.462 249.004 167.462 248.044C167.462 247.108 167.75 246.388 168.326 245.884C168.902 245.38 169.718 245.128 170.774 245.128Z" fill="black"/>
<path d="M6.356 270.176C7.22 270.176 7.988 270.308 8.66 270.572C9.332 270.836 9.872 271.148 10.28 271.508C10.544 271.7 10.76 271.796 10.928 271.796C11.36 271.796 11.624 271.268 11.72 270.212H12.548C12.452 271.388 12.404 273.428 12.404 276.332H11.576C11.312 274.748 10.796 273.44 10.028 272.408C9.284 271.376 8.168 270.86 6.68 270.86C5.816 270.86 5.108 271.112 4.556 271.616C4.004 272.096 3.728 272.768 3.728 273.632C3.728 274.472 4.016 275.18 4.592 275.756C5.168 276.308 6.092 276.98 7.364 277.772C7.58 277.892 7.904 278.096 8.336 278.384C9.44 279.104 10.328 279.74 11 280.292C11.672 280.844 12.212 281.48 12.62 282.2C13.052 282.92 13.268 283.748 13.268 284.684C13.268 286.268 12.668 287.504 11.468 288.392C10.292 289.28 8.84 289.724 7.112 289.724C6.032 289.724 5.084 289.556 4.268 289.22C3.74 288.956 3.248 288.632 2.792 288.248C2.696 288.152 2.588 288.104 2.468 288.104C2.3 288.104 2.144 288.224 2 288.464C1.88 288.704 1.784 289.04 1.712 289.472H0.884003C0.980003 288.104 1.028 285.704 1.028 282.272H1.856C2.12 284.528 2.6 286.22 3.296 287.348C3.992 288.452 5.18 289.004 6.86 289.004C7.7 289.004 8.444 288.728 9.092 288.176C9.74 287.624 10.064 286.76 10.064 285.584C10.064 284.648 9.74 283.856 9.092 283.208C8.468 282.56 7.436 281.78 5.996 280.868C4.82 280.124 3.908 279.512 3.26 279.032C2.636 278.552 2.108 277.964 1.676 277.268C1.244 276.572 1.028 275.756 1.028 274.82C1.028 273.308 1.532 272.156 2.54 271.364C3.548 270.572 4.82 270.176 6.356 270.176Z" fill="black"/>
<path d="M21.8096 270.716H27.1376V271.436H21.8096V285.368C21.8096 286.448 22.0016 287.228 22.3856 287.708C22.7936 288.188 23.3696 288.428 24.1136 288.428C24.8576 288.428 25.4936 288.128 26.0216 287.528C26.5496 286.928 26.9936 285.944 27.3536 284.576L28.0736 284.756C27.4736 288.068 25.9136 289.724 23.3936 289.724C22.5776 289.724 21.9056 289.628 21.3776 289.436C20.8496 289.244 20.3816 288.944 19.9736 288.536C19.4456 288.008 19.0736 287.36 18.8576 286.592C18.6656 285.824 18.5696 284.792 18.5696 283.496V271.436H15.1136V270.716H18.5696V265.208C19.9136 265.16 20.9936 264.992 21.8096 264.704V270.716Z" fill="black"/>
<path d="M45.0841 285.332C45.0841 286.436 45.2881 287.24 45.6961 287.744C46.1041 288.248 46.8121 288.5 47.8201 288.5V289.256C47.0761 289.184 46.3321 289.148 45.5881 289.148C44.0761 289.148 42.8281 289.316 41.8441 289.652V285.404C41.2681 286.892 40.4521 287.984 39.3961 288.68C38.3401 289.376 37.1881 289.724 35.9401 289.724C34.3081 289.724 33.0601 289.268 32.1961 288.356C31.7641 287.876 31.4521 287.264 31.2601 286.52C31.0921 285.776 31.0081 284.816 31.0081 283.64V274.604C31.0081 273.5 30.8041 272.696 30.3961 272.192C29.9881 271.688 29.2801 271.436 28.2721 271.436V270.68C29.0161 270.752 29.7601 270.788 30.5041 270.788C32.0161 270.788 33.2641 270.62 34.2481 270.284V284.432C34.2481 285.344 34.2961 286.088 34.3921 286.664C34.5121 287.216 34.7641 287.672 35.1481 288.032C35.5561 288.392 36.1681 288.572 36.9841 288.572C37.8961 288.572 38.7241 288.284 39.4681 287.708C40.2121 287.132 40.7881 286.352 41.1961 285.368C41.6281 284.36 41.8441 283.256 41.8441 282.056V274.604C41.8441 273.5 41.6401 272.696 41.2321 272.192C40.8241 271.688 40.1161 271.436 39.1081 271.436V270.68C39.8521 270.752 40.5961 270.788 41.3401 270.788C42.8521 270.788 44.1001 270.62 45.0841 270.284V285.332Z" fill="black"/>
<path d="M66.0381 285.296C66.0381 286.4 66.2421 287.204 66.6501 287.708C67.0581 288.212 67.7661 288.464 68.7741 288.464V289.22C68.0301 289.148 67.2861 289.112 66.5421 289.112C65.0301 289.112 63.7821 289.28 62.7981 289.616V286.412C62.3661 287.492 61.7181 288.32 60.8541 288.896C59.9901 289.448 58.9341 289.724 57.6861 289.724C55.3821 289.724 53.5701 288.896 52.2501 287.24C50.9541 285.584 50.3181 283.16 50.3421 279.968C50.3421 277.88 50.7021 276.104 51.4221 274.64C52.1661 273.152 53.1501 272.036 54.3741 271.292C55.6221 270.548 56.9901 270.176 58.4781 270.176C59.3901 270.176 60.2181 270.356 60.9621 270.716C61.7301 271.052 62.3421 271.58 62.7981 272.3V265.316C62.7981 264.212 62.5941 263.408 62.1861 262.904C61.7781 262.4 61.0701 262.148 60.0621 262.148V261.392C60.8301 261.464 61.5741 261.5 62.2941 261.5C63.8061 261.5 65.0541 261.332 66.0381 260.996V285.296ZM58.7301 288.644C59.6661 288.644 60.5061 288.284 61.2501 287.564C61.9941 286.844 62.5101 285.824 62.7981 284.504V273.776C62.1501 271.928 60.8061 271.004 58.7661 271.004C57.2781 271.004 56.0781 271.772 55.1661 273.308C54.2541 274.82 53.8101 277.04 53.8341 279.968C53.8101 282.848 54.2181 285.02 55.0581 286.484C55.8981 287.924 57.1221 288.644 58.7301 288.644Z" fill="black"/>
<path d="M74.6801 261.68C75.3041 261.68 75.8441 261.908 76.3001 262.364C76.7561 262.82 76.9841 263.36 76.9841 263.984C76.9841 264.608 76.7561 265.148 76.3001 265.604C75.8441 266.06 75.3041 266.288 74.6801 266.288C74.0561 266.288 73.5161 266.06 73.0601 265.604C72.6041 265.148 72.3761 264.608 72.3761 263.984C72.3761 263.36 72.6041 262.82 73.0601 262.364C73.5161 261.908 74.0561 261.68 74.6801 261.68ZM76.5521 285.872C76.5521 286.856 76.7561 287.54 77.1641 287.924C77.5721 288.284 78.2801 288.464 79.2881 288.464V289.22C77.0801 289.124 75.6281 289.076 74.9321 289.076C74.2361 289.076 72.7841 289.124 70.5761 289.22V288.464C71.5841 288.464 72.2921 288.284 72.7001 287.924C73.1081 287.54 73.3121 286.856 73.3121 285.872V274.604C73.3121 273.5 73.1081 272.696 72.7001 272.192C72.2921 271.688 71.5841 271.436 70.5761 271.436V270.68C71.3441 270.752 72.0881 270.788 72.8081 270.788C74.3201 270.788 75.5681 270.62 76.5521 270.284V285.872Z" fill="black"/>
<path d="M89.9429 270.176C92.3909 270.176 94.3589 270.992 95.8469 272.624C97.3589 274.232 98.1149 276.68 98.1149 279.968C98.1149 283.256 97.3589 285.704 95.8469 287.312C94.3589 288.92 92.3909 289.724 89.9429 289.724C87.4949 289.724 85.5149 288.92 84.0029 287.312C82.5149 285.704 81.7709 283.256 81.7709 279.968C81.7709 276.68 82.5149 274.232 84.0029 272.624C85.5149 270.992 87.4949 270.176 89.9429 270.176ZM89.9429 270.896C88.5029 270.896 87.3629 271.64 86.5229 273.128C85.6829 274.592 85.2629 276.872 85.2629 279.968C85.2629 283.064 85.6829 285.344 86.5229 286.808C87.3629 288.272 88.5029 289.004 89.9429 289.004C91.3829 289.004 92.5229 288.272 93.3629 286.808C94.2029 285.344 94.6229 283.064 94.6229 279.968C94.6229 276.872 94.2029 274.592 93.3629 273.128C92.5229 271.64 91.3829 270.896 89.9429 270.896Z" fill="black"/>
<path fill-rule="evenodd" clip-rule="evenodd" d="M103.252 39.0956H0V204.5H103.252V39.0956Z" fill="black"/>
<path fill-rule="evenodd" clip-rule="evenodd" d="M101.749 3.00735C69.3609 3.00735 43.1054 29.2629 43.1054 61.6507C43.1054 94.0386 69.3609 120.294 101.749 120.294C134.137 120.294 160.392 94.0386 160.392 61.6507C160.392 29.2629 134.137 3.00735 101.749 3.00735ZM40.0981 61.6507C40.0981 27.602 67.7 0 101.749 0C135.798 0 163.4 27.602 163.4 61.6507C163.4 95.6995 135.798 123.301 101.749 123.301C67.7 123.301 40.0981 95.6995 40.0981 61.6507Z" fill="#C98F39"/>
<path fill-rule="evenodd" clip-rule="evenodd" d="M103.252 39.0956H44.3453L43.9801 40.0729C41.4698 46.7907 40.0981 54.0623 40.0981 61.6507C40.0981 95.6995 67.7 123.301 101.749 123.301H103.252V39.0956Z" fill="#C98F39"/>
</svg>
