<svg width="332" height="66" viewBox="0 0 332 66" fill="none" xmlns="http://www.w3.org/2000/svg">
<path fill-rule="evenodd" clip-rule="evenodd" d="M33.0711 12.522H0V65.5H33.0711V12.522Z" fill="black"/>
<path fill-rule="evenodd" clip-rule="evenodd" d="M32.5895 0.963235C22.2158 0.963235 13.8064 9.37271 13.8064 19.7463C13.8064 30.1199 22.2158 38.5294 32.5895 38.5294C42.9631 38.5294 51.3726 30.1199 51.3726 19.7463C51.3726 9.37271 42.9631 0.963235 32.5895 0.963235ZM12.8431 19.7463C12.8431 8.84073 21.6839 0 32.5895 0C43.4951 0 52.3358 8.84073 52.3358 19.7463C52.3358 30.6519 43.4951 39.4926 32.5895 39.4926C21.6839 39.4926 12.8431 30.6519 12.8431 19.7463Z" fill="#C98F39"/>
<path fill-rule="evenodd" clip-rule="evenodd" d="M33.0711 12.522H14.2035L14.0865 12.8351C13.2825 14.9867 12.8431 17.3158 12.8431 19.7463C12.8431 30.6519 21.6839 39.4926 32.5895 39.4926H33.0711V12.522Z" fill="#C98F39"/>
<path d="M239.472 45.18C240.336 45.18 241.104 45.312 241.776 45.576C242.448 45.84 242.988 46.152 243.396 46.512C243.66 46.704 243.876 46.8 244.044 46.8C244.476 46.8 244.74 46.272 244.836 45.216H245.664C245.568 46.392 245.52 48.432 245.52 51.336H244.692C244.428 49.752 243.912 48.444 243.144 47.412C242.4 46.38 241.284 45.864 239.796 45.864C238.932 45.864 238.224 46.116 237.672 46.62C237.12 47.1 236.844 47.772 236.844 48.636C236.844 49.476 237.132 50.184 237.708 50.76C238.284 51.312 239.208 51.984 240.48 52.776C240.696 52.896 241.02 53.1 241.452 53.388C242.556 54.108 243.444 54.744 244.116 55.296C244.788 55.848 245.328 56.484 245.736 57.204C246.168 57.924 246.384 58.752 246.384 59.688C246.384 61.272 245.784 62.508 244.584 63.396C243.408 64.284 241.956 64.728 240.228 64.728C239.148 64.728 238.2 64.56 237.384 64.224C236.856 63.96 236.364 63.636 235.908 63.252C235.812 63.156 235.704 63.108 235.584 63.108C235.416 63.108 235.26 63.228 235.116 63.468C234.996 63.708 234.9 64.044 234.828 64.476H234C234.096 63.108 234.144 60.708 234.144 57.276H234.972C235.236 59.532 235.716 61.224 236.412 62.352C237.108 63.456 238.296 64.008 239.976 64.008C240.816 64.008 241.56 63.732 242.208 63.18C242.856 62.628 243.18 61.764 243.18 60.588C243.18 59.652 242.856 58.86 242.208 58.212C241.584 57.564 240.552 56.784 239.112 55.872C237.936 55.128 237.024 54.516 236.376 54.036C235.752 53.556 235.224 52.968 234.792 52.272C234.36 51.576 234.144 50.76 234.144 49.824C234.144 48.312 234.648 47.16 235.656 46.368C236.664 45.576 237.936 45.18 239.472 45.18Z" fill="black"/>
<path d="M254.926 45.72H260.254V46.44H254.926V60.372C254.926 61.452 255.118 62.232 255.502 62.712C255.91 63.192 256.486 63.432 257.23 63.432C257.974 63.432 258.61 63.132 259.138 62.532C259.666 61.932 260.11 60.948 260.47 59.58L261.19 59.76C260.59 63.072 259.03 64.728 256.51 64.728C255.694 64.728 255.022 64.632 254.494 64.44C253.966 64.248 253.498 63.948 253.09 63.54C252.562 63.012 252.19 62.364 251.974 61.596C251.782 60.828 251.686 59.796 251.686 58.5V46.44H248.23V45.72H251.686V40.212C253.03 40.164 254.11 39.996 254.926 39.708V45.72Z" fill="black"/>
<path d="M278.2 60.336C278.2 61.44 278.404 62.244 278.812 62.748C279.22 63.252 279.928 63.504 280.936 63.504V64.26C280.192 64.188 279.448 64.152 278.704 64.152C277.192 64.152 275.944 64.32 274.96 64.656V60.408C274.384 61.896 273.568 62.988 272.512 63.684C271.456 64.38 270.304 64.728 269.056 64.728C267.424 64.728 266.176 64.272 265.312 63.36C264.88 62.88 264.568 62.268 264.376 61.524C264.208 60.78 264.124 59.82 264.124 58.644V49.608C264.124 48.504 263.92 47.7 263.512 47.196C263.104 46.692 262.396 46.44 261.388 46.44V45.684C262.132 45.756 262.876 45.792 263.62 45.792C265.132 45.792 266.38 45.624 267.364 45.288V59.436C267.364 60.348 267.412 61.092 267.508 61.668C267.628 62.22 267.88 62.676 268.264 63.036C268.672 63.396 269.284 63.576 270.1 63.576C271.012 63.576 271.84 63.288 272.584 62.712C273.328 62.136 273.904 61.356 274.312 60.372C274.744 59.364 274.96 58.26 274.96 57.06V49.608C274.96 48.504 274.756 47.7 274.348 47.196C273.94 46.692 273.232 46.44 272.224 46.44V45.684C272.968 45.756 273.712 45.792 274.456 45.792C275.968 45.792 277.216 45.624 278.2 45.288V60.336Z" fill="black"/>
<path d="M299.154 60.3C299.154 61.404 299.358 62.208 299.766 62.712C300.174 63.216 300.882 63.468 301.89 63.468V64.224C301.146 64.152 300.402 64.116 299.658 64.116C298.146 64.116 296.898 64.284 295.914 64.62V61.416C295.482 62.496 294.834 63.324 293.97 63.9C293.106 64.452 292.05 64.728 290.802 64.728C288.498 64.728 286.686 63.9 285.366 62.244C284.07 60.588 283.434 58.164 283.458 54.972C283.458 52.884 283.818 51.108 284.538 49.644C285.282 48.156 286.266 47.04 287.49 46.296C288.738 45.552 290.106 45.18 291.594 45.18C292.506 45.18 293.334 45.36 294.078 45.72C294.846 46.056 295.458 46.584 295.914 47.304V40.32C295.914 39.216 295.71 38.412 295.302 37.908C294.894 37.404 294.186 37.152 293.178 37.152V36.396C293.946 36.468 294.69 36.504 295.41 36.504C296.922 36.504 298.17 36.336 299.154 36V60.3ZM291.846 63.648C292.782 63.648 293.622 63.288 294.366 62.568C295.11 61.848 295.626 60.828 295.914 59.508V48.78C295.266 46.932 293.922 46.008 291.882 46.008C290.394 46.008 289.194 46.776 288.282 48.312C287.37 49.824 286.926 52.044 286.95 54.972C286.926 57.852 287.334 60.024 288.174 61.488C289.014 62.928 290.238 63.648 291.846 63.648Z" fill="black"/>
<path d="M307.796 36.684C308.42 36.684 308.96 36.912 309.416 37.368C309.872 37.824 310.1 38.364 310.1 38.988C310.1 39.612 309.872 40.152 309.416 40.608C308.96 41.064 308.42 41.292 307.796 41.292C307.172 41.292 306.632 41.064 306.176 40.608C305.72 40.152 305.492 39.612 305.492 38.988C305.492 38.364 305.72 37.824 306.176 37.368C306.632 36.912 307.172 36.684 307.796 36.684ZM309.668 60.876C309.668 61.86 309.872 62.544 310.28 62.928C310.688 63.288 311.396 63.468 312.404 63.468V64.224C310.196 64.128 308.744 64.08 308.048 64.08C307.352 64.08 305.9 64.128 303.692 64.224V63.468C304.7 63.468 305.408 63.288 305.816 62.928C306.224 62.544 306.428 61.86 306.428 60.876V49.608C306.428 48.504 306.224 47.7 305.816 47.196C305.408 46.692 304.7 46.44 303.692 46.44V45.684C304.46 45.756 305.204 45.792 305.924 45.792C307.436 45.792 308.684 45.624 309.668 45.288V60.876Z" fill="black"/>
<path d="M323.059 45.18C325.507 45.18 327.475 45.996 328.963 47.628C330.475 49.236 331.231 51.684 331.231 54.972C331.231 58.26 330.475 60.708 328.963 62.316C327.475 63.924 325.507 64.728 323.059 64.728C320.611 64.728 318.631 63.924 317.119 62.316C315.631 60.708 314.887 58.26 314.887 54.972C314.887 51.684 315.631 49.236 317.119 47.628C318.631 45.996 320.611 45.18 323.059 45.18ZM323.059 45.9C321.619 45.9 320.479 46.644 319.639 48.132C318.799 49.596 318.379 51.876 318.379 54.972C318.379 58.068 318.799 60.348 319.639 61.812C320.479 63.276 321.619 64.008 323.059 64.008C324.499 64.008 325.639 63.276 326.479 61.812C327.319 60.348 327.739 58.068 327.739 54.972C327.739 51.876 327.319 49.596 326.479 48.132C325.639 46.644 324.499 45.9 323.059 45.9Z" fill="black"/>
<path d="M52 39.504C52.648 39.528 53.512 39.552 54.592 39.576C55.672 39.6 56.752 39.612 57.832 39.612C59.008 39.612 60.136 39.6 61.216 39.576C62.32 39.552 63.1 39.54 63.556 39.54C67.06 39.54 69.664 40.2 71.368 41.52C73.096 42.84 73.96 44.544 73.96 46.632C73.96 47.496 73.78 48.408 73.42 49.368C73.084 50.304 72.496 51.18 71.656 51.996C70.84 52.788 69.7 53.436 68.236 53.94C66.796 54.444 64.972 54.696 62.764 54.696H59.02V53.976H62.404C63.724 53.976 64.72 53.652 65.392 53.004C66.088 52.356 66.556 51.504 66.796 50.448C67.06 49.392 67.192 48.252 67.192 47.028C67.192 44.748 66.892 43.044 66.292 41.916C65.692 40.788 64.672 40.224 63.232 40.224C62.344 40.224 61.768 40.428 61.504 40.836C61.264 41.244 61.144 42.072 61.144 43.32V60.888C61.144 61.848 61.24 62.568 61.432 63.048C61.624 63.504 62.008 63.804 62.584 63.948C63.16 64.092 63.988 64.176 65.068 64.2V64.992C64.276 64.968 63.256 64.944 62.008 64.92C60.76 64.896 59.452 64.884 58.084 64.884C57.004 64.884 55.936 64.896 54.88 64.92C53.848 64.944 52.888 64.968 52 64.992V64.272C52.744 64.224 53.296 64.128 53.656 63.984C54.04 63.84 54.292 63.552 54.412 63.12C54.556 62.688 54.628 62.04 54.628 61.176V43.32C54.628 42.432 54.556 41.784 54.412 41.376C54.292 40.944 54.04 40.656 53.656 40.512C53.296 40.344 52.744 40.248 52 40.224V39.504Z" fill="black"/>
<path d="M89.1945 39C91.8345 39 94.1385 39.516 96.1065 40.548C98.0745 41.58 99.5985 43.068 100.678 45.012C101.782 46.932 102.334 49.272 102.334 52.032C102.334 54.72 101.77 57.072 100.642 59.088C99.5385 61.104 97.9905 62.676 95.9985 63.804C94.0065 64.932 91.7265 65.496 89.1585 65.496C86.5425 65.496 84.2385 64.98 82.2465 63.948C80.2785 62.916 78.7425 61.428 77.6385 59.484C76.5585 57.54 76.0185 55.2 76.0185 52.464C76.0185 49.776 76.5825 47.424 77.7105 45.408C78.8625 43.392 80.4225 41.82 82.3905 40.692C84.3585 39.564 86.6265 39 89.1945 39ZM89.0505 39.648C87.7785 39.648 86.6745 40.188 85.7385 41.268C84.8025 42.348 84.0705 43.836 83.5425 45.732C83.0385 47.628 82.7865 49.824 82.7865 52.32C82.7865 54.864 83.0745 57.084 83.6505 58.98C84.2505 60.852 85.0425 62.304 86.0265 63.336C87.0105 64.344 88.1025 64.848 89.3025 64.848C90.5745 64.848 91.6785 64.308 92.6145 63.228C93.5745 62.148 94.3065 60.66 94.8105 58.764C95.3145 56.844 95.5665 54.648 95.5665 52.176C95.5665 49.608 95.2785 47.388 94.7025 45.516C94.1265 43.644 93.3345 42.204 92.3265 41.196C91.3425 40.164 90.2505 39.648 89.0505 39.648Z" fill="black"/>
<path d="M114.307 39.036C115.795 39.036 116.947 39.192 117.763 39.504C118.579 39.792 119.275 40.104 119.851 40.44C120.139 40.608 120.367 40.74 120.535 40.836C120.727 40.908 120.907 40.944 121.075 40.944C121.459 40.944 121.723 40.416 121.867 39.36H122.695C122.671 39.84 122.635 40.404 122.587 41.052C122.563 41.7 122.539 42.564 122.515 43.644C122.515 44.7 122.515 46.104 122.515 47.856H121.687C121.591 46.56 121.291 45.312 120.787 44.112C120.283 42.912 119.587 41.916 118.699 41.124C117.835 40.332 116.767 39.936 115.495 39.936C114.391 39.936 113.479 40.248 112.759 40.872C112.039 41.472 111.679 42.336 111.679 43.464C111.679 44.376 111.907 45.168 112.363 45.84C112.819 46.488 113.503 47.148 114.415 47.82C115.351 48.492 116.527 49.32 117.943 50.304C119.071 51.048 120.079 51.792 120.967 52.536C121.855 53.28 122.563 54.12 123.091 55.056C123.643 55.992 123.919 57.12 123.919 58.44C123.919 60.024 123.487 61.344 122.623 62.4C121.759 63.432 120.619 64.212 119.203 64.74C117.787 65.244 116.239 65.496 114.559 65.496C112.999 65.496 111.751 65.352 110.815 65.064C109.903 64.776 109.123 64.476 108.475 64.164C107.947 63.828 107.539 63.66 107.251 63.66C106.867 63.66 106.603 64.188 106.459 65.244H105.631C105.679 64.644 105.703 63.948 105.703 63.156C105.727 62.34 105.739 61.296 105.739 60.024C105.763 58.752 105.775 57.132 105.775 55.164H106.603C106.699 56.796 106.963 58.32 107.395 59.736C107.851 61.152 108.535 62.304 109.447 63.192C110.383 64.056 111.619 64.488 113.155 64.488C114.451 64.488 115.507 64.164 116.323 63.516C117.139 62.868 117.547 61.932 117.547 60.708C117.547 59.22 117.043 57.984 116.035 57C115.051 56.016 113.779 55.008 112.219 53.976C111.091 53.232 110.035 52.476 109.051 51.708C108.067 50.94 107.275 50.088 106.675 49.152C106.099 48.192 105.811 47.04 105.811 45.696C105.811 44.16 106.207 42.9 106.999 41.916C107.791 40.932 108.835 40.212 110.131 39.756C111.451 39.276 112.843 39.036 114.307 39.036Z" fill="black"/>
<path d="M148.999 39.504C148.903 40.824 148.831 42.096 148.783 43.32C148.759 44.544 148.747 45.48 148.747 46.128C148.747 46.656 148.759 47.148 148.783 47.604C148.807 48.06 148.831 48.456 148.855 48.792H148.027C147.547 46.656 146.971 44.976 146.299 43.752C145.627 42.504 144.859 41.628 143.995 41.124C143.155 40.596 142.243 40.332 141.259 40.332H140.827V60.888C140.827 61.872 140.923 62.604 141.115 63.084C141.331 63.564 141.715 63.888 142.267 64.056C142.843 64.2 143.671 64.272 144.751 64.272V64.992C143.959 64.968 142.891 64.944 141.547 64.92C140.227 64.896 138.847 64.884 137.407 64.884C135.991 64.884 134.659 64.896 133.411 64.92C132.163 64.944 131.155 64.968 130.387 64.992V64.272C131.467 64.272 132.295 64.2 132.871 64.056C133.447 63.888 133.831 63.564 134.023 63.084C134.215 62.604 134.311 61.872 134.311 60.888V40.332H133.915C132.907 40.332 131.983 40.596 131.143 41.124C130.303 41.628 129.547 42.492 128.875 43.716C128.203 44.94 127.615 46.632 127.111 48.792H126.283C126.331 48.456 126.355 48.06 126.355 47.604C126.379 47.148 126.391 46.656 126.391 46.128C126.391 45.48 126.367 44.544 126.319 43.32C126.295 42.096 126.235 40.824 126.139 39.504C127.267 39.528 128.503 39.552 129.847 39.576C131.215 39.6 132.571 39.612 133.915 39.612C135.259 39.612 136.483 39.612 137.587 39.612C138.691 39.612 139.915 39.612 141.259 39.612C142.627 39.612 143.983 39.6 145.327 39.576C146.671 39.552 147.895 39.528 148.999 39.504Z" fill="black"/>
<path d="M170.657 39.504C170.561 40.632 170.489 41.724 170.441 42.78C170.417 43.836 170.405 44.64 170.405 45.192C170.405 45.672 170.417 46.14 170.441 46.596C170.465 47.028 170.489 47.4 170.513 47.712H169.685C169.421 45.84 168.989 44.364 168.389 43.284C167.813 42.204 167.093 41.448 166.229 41.016C165.389 40.56 164.453 40.332 163.421 40.332H162.449C161.777 40.332 161.273 40.392 160.937 40.512C160.601 40.608 160.373 40.824 160.253 41.16C160.157 41.496 160.109 42.024 160.109 42.744V61.752C160.109 62.448 160.157 62.976 160.253 63.336C160.373 63.672 160.601 63.9 160.937 64.02C161.273 64.116 161.777 64.164 162.449 64.164H163.925C164.861 64.164 165.749 63.924 166.589 63.444C167.453 62.94 168.221 62.1 168.893 60.924C169.565 59.724 170.069 58.104 170.405 56.064H171.233C171.161 56.88 171.125 57.936 171.125 59.232C171.125 59.808 171.137 60.624 171.161 61.68C171.185 62.736 171.257 63.84 171.377 64.992C170.153 64.944 168.773 64.92 167.237 64.92C165.701 64.896 164.333 64.884 163.133 64.884C162.293 64.884 161.165 64.884 159.749 64.884C158.357 64.884 156.881 64.896 155.321 64.92C153.761 64.92 152.309 64.944 150.965 64.992V64.272C151.709 64.224 152.261 64.128 152.621 63.984C153.005 63.84 153.257 63.552 153.377 63.12C153.521 62.688 153.593 62.04 153.593 61.176V43.32C153.593 42.432 153.521 41.784 153.377 41.376C153.257 40.944 153.005 40.656 152.621 40.512C152.261 40.344 151.709 40.248 150.965 40.224V39.504C152.309 39.528 153.761 39.552 155.321 39.576C156.881 39.6 158.357 39.612 159.749 39.612C161.165 39.612 162.293 39.612 163.133 39.612C164.237 39.612 165.485 39.612 166.877 39.612C168.293 39.588 169.553 39.552 170.657 39.504ZM165.221 51.816C165.221 51.816 165.221 51.936 165.221 52.176C165.221 52.416 165.221 52.536 165.221 52.536H159.029C159.029 52.536 159.029 52.416 159.029 52.176C159.029 51.936 159.029 51.816 159.029 51.816H165.221ZM166.265 47.064C166.169 48.432 166.121 49.476 166.121 50.196C166.145 50.916 166.157 51.576 166.157 52.176C166.157 52.776 166.169 53.436 166.193 54.156C166.217 54.876 166.277 55.92 166.373 57.288H165.545C165.425 56.424 165.173 55.632 164.789 54.912C164.405 54.192 163.889 53.616 163.241 53.184C162.593 52.752 161.801 52.536 160.865 52.536V51.816C161.801 51.816 162.581 51.564 163.205 51.06C163.829 50.532 164.321 49.908 164.681 49.188C165.065 48.444 165.317 47.736 165.437 47.064H166.265Z" fill="black"/>
<path d="M174.062 39.504C174.711 39.528 175.575 39.552 176.655 39.576C177.735 39.6 178.815 39.612 179.895 39.612C181.071 39.612 182.199 39.6 183.279 39.576C184.383 39.552 185.162 39.54 185.618 39.54C189.122 39.54 191.726 40.068 193.43 41.124C195.158 42.18 196.023 43.74 196.023 45.804C196.023 46.668 195.842 47.52 195.482 48.36C195.146 49.176 194.559 49.932 193.719 50.628C192.903 51.324 191.763 51.876 190.299 52.284C188.859 52.692 187.035 52.896 184.827 52.896H181.37V52.176H184.467C185.787 52.176 186.782 51.912 187.454 51.384C188.15 50.832 188.619 50.112 188.859 49.224C189.123 48.312 189.255 47.304 189.255 46.2C189.255 44.304 188.955 42.84 188.355 41.808C187.755 40.752 186.734 40.224 185.294 40.224C184.406 40.224 183.83 40.428 183.566 40.836C183.326 41.244 183.206 42.072 183.206 43.32V61.176C183.206 62.04 183.267 62.688 183.387 63.12C183.531 63.552 183.783 63.84 184.143 63.984C184.527 64.128 185.091 64.224 185.835 64.272V64.992C185.163 64.944 184.299 64.92 183.243 64.92C182.211 64.896 181.167 64.884 180.111 64.884C178.887 64.884 177.735 64.896 176.655 64.92C175.575 64.92 174.711 64.944 174.062 64.992V64.272C174.807 64.224 175.358 64.128 175.718 63.984C176.102 63.84 176.355 63.552 176.475 63.12C176.619 62.688 176.69 62.04 176.69 61.176V43.32C176.69 42.432 176.619 41.784 176.475 41.376C176.355 40.944 176.102 40.656 175.718 40.512C175.358 40.344 174.807 40.248 174.062 40.224V39.504ZM181.227 52.284C182.163 52.308 183.015 52.356 183.783 52.428C184.551 52.5 185.235 52.572 185.835 52.644C186.459 52.692 186.998 52.728 187.454 52.752C189.83 52.896 191.595 53.352 192.747 54.12C193.923 54.864 194.667 55.98 194.979 57.468L195.734 61.212C195.95 62.124 196.179 62.772 196.419 63.156C196.659 63.516 196.994 63.684 197.426 63.66C197.69 63.66 197.919 63.612 198.111 63.516C198.303 63.396 198.495 63.228 198.687 63.012L199.191 63.48C198.495 64.224 197.739 64.74 196.923 65.028C196.107 65.34 195.159 65.496 194.079 65.496C192.663 65.496 191.499 65.22 190.587 64.668C189.699 64.116 189.135 63.096 188.895 61.608L188.283 58.008C188.139 57.024 187.946 56.148 187.706 55.38C187.49 54.612 187.191 54.012 186.807 53.58C186.423 53.124 185.882 52.896 185.186 52.896H181.299L181.227 52.284Z" fill="black"/>
<path d="M219.67 39.468V40.188C219.142 40.428 218.578 40.896 217.978 41.592C217.402 42.264 216.766 43.284 216.07 44.652L209.41 57.828H207.358L198.934 42.24C198.526 41.448 198.142 40.92 197.782 40.656C197.422 40.368 197.11 40.224 196.846 40.224V39.468C197.542 39.54 198.262 39.6 199.006 39.648C199.75 39.672 200.566 39.684 201.454 39.684C202.606 39.684 203.842 39.66 205.162 39.612C206.482 39.564 207.694 39.516 208.798 39.468V40.224C208.198 40.224 207.646 40.26 207.142 40.332C206.662 40.404 206.314 40.548 206.098 40.764C205.906 40.98 205.93 41.34 206.17 41.844L211.75 52.536L210.346 54.372L213.73 47.604C214.666 45.756 215.17 44.304 215.242 43.248C215.338 42.168 215.11 41.4 214.558 40.944C214.03 40.464 213.286 40.212 212.326 40.188V39.468C213.19 39.492 213.97 39.516 214.666 39.54C215.386 39.564 216.142 39.576 216.934 39.576C217.438 39.576 217.93 39.564 218.41 39.54C218.89 39.516 219.31 39.492 219.67 39.468ZM212.254 51.492V61.176C212.254 62.04 212.314 62.688 212.434 63.12C212.578 63.552 212.83 63.84 213.19 63.984C213.574 64.128 214.138 64.224 214.882 64.272V64.992C214.21 64.944 213.322 64.92 212.218 64.92C211.138 64.896 210.07 64.884 209.014 64.884C207.838 64.884 206.71 64.896 205.63 64.92C204.574 64.92 203.734 64.944 203.11 64.992V64.272C203.854 64.224 204.406 64.128 204.766 63.984C205.15 63.84 205.402 63.552 205.522 63.12C205.666 62.688 205.738 62.04 205.738 61.176V53.796L209.266 56.028L212.254 51.492Z" fill="black"/>
<path d="M222.774 59.628C223.806 59.628 224.61 59.88 225.186 60.384C225.786 60.888 226.086 61.608 226.086 62.544C226.086 63.504 225.786 64.236 225.186 64.74C224.61 65.244 223.806 65.496 222.774 65.496C221.718 65.496 220.902 65.244 220.326 64.74C219.75 64.236 219.462 63.504 219.462 62.544C219.462 61.608 219.75 60.888 220.326 60.384C220.902 59.88 221.718 59.628 222.774 59.628Z" fill="black"/>
</svg>
