<svg width="337" height="205" viewBox="0 0 337 205" fill="none" xmlns="http://www.w3.org/2000/svg">
<path d="M162.116 139.512C162.764 139.536 163.628 139.56 164.708 139.584C165.788 139.608 166.868 139.62 167.948 139.62C169.124 139.62 170.252 139.608 171.332 139.584C172.436 139.56 173.216 139.548 173.672 139.548C177.176 139.548 179.78 140.208 181.484 141.528C183.212 142.848 184.076 144.552 184.076 146.64C184.076 147.504 183.896 148.416 183.536 149.376C183.2 150.312 182.612 151.188 181.772 152.004C180.956 152.796 179.816 153.444 178.352 153.948C176.912 154.452 175.088 154.704 172.88 154.704H169.136V153.984H172.52C173.84 153.984 174.836 153.66 175.508 153.012C176.204 152.364 176.672 151.512 176.912 150.456C177.176 149.4 177.308 148.26 177.308 147.036C177.308 144.756 177.008 143.052 176.408 141.924C175.808 140.796 174.788 140.232 173.348 140.232C172.46 140.232 171.884 140.436 171.62 140.844C171.38 141.252 171.26 142.08 171.26 143.328V160.896C171.26 161.856 171.356 162.576 171.548 163.056C171.74 163.512 172.124 163.812 172.7 163.956C173.276 164.1 174.104 164.184 175.184 164.208V165C174.392 164.976 173.372 164.952 172.124 164.928C170.876 164.904 169.568 164.892 168.2 164.892C167.12 164.892 166.052 164.904 164.996 164.928C163.964 164.952 163.004 164.976 162.116 165V164.28C162.86 164.232 163.412 164.136 163.772 163.992C164.156 163.848 164.408 163.56 164.528 163.128C164.672 162.696 164.744 162.048 164.744 161.184V143.328C164.744 142.44 164.672 141.792 164.528 141.384C164.408 140.952 164.156 140.664 163.772 140.52C163.412 140.352 162.86 140.256 162.116 140.232V139.512Z" fill="black"/>
<path d="M199.31 139.008C201.95 139.008 204.254 139.524 206.222 140.556C208.19 141.588 209.714 143.076 210.794 145.02C211.898 146.94 212.45 149.28 212.45 152.04C212.45 154.728 211.886 157.08 210.758 159.096C209.654 161.112 208.106 162.684 206.114 163.812C204.122 164.94 201.842 165.504 199.274 165.504C196.658 165.504 194.354 164.988 192.362 163.956C190.394 162.924 188.858 161.436 187.754 159.492C186.674 157.548 186.134 155.208 186.134 152.472C186.134 149.784 186.698 147.432 187.826 145.416C188.978 143.4 190.538 141.828 192.506 140.7C194.474 139.572 196.742 139.008 199.31 139.008ZM199.166 139.656C197.894 139.656 196.79 140.196 195.854 141.276C194.918 142.356 194.186 143.844 193.658 145.74C193.154 147.636 192.902 149.832 192.902 152.328C192.902 154.872 193.19 157.092 193.766 158.988C194.366 160.86 195.158 162.312 196.142 163.344C197.126 164.352 198.218 164.856 199.418 164.856C200.69 164.856 201.794 164.316 202.73 163.236C203.69 162.156 204.422 160.668 204.926 158.772C205.43 156.852 205.682 154.656 205.682 152.184C205.682 149.616 205.394 147.396 204.818 145.524C204.242 143.652 203.45 142.212 202.442 141.204C201.458 140.172 200.366 139.656 199.166 139.656Z" fill="black"/>
<path d="M224.423 139.044C225.911 139.044 227.063 139.2 227.879 139.512C228.695 139.8 229.391 140.112 229.967 140.448C230.255 140.616 230.483 140.748 230.651 140.844C230.843 140.916 231.023 140.952 231.191 140.952C231.575 140.952 231.839 140.424 231.983 139.368H232.811C232.787 139.848 232.751 140.412 232.703 141.06C232.679 141.708 232.655 142.572 232.631 143.652C232.631 144.708 232.631 146.112 232.631 147.864H231.803C231.707 146.568 231.407 145.32 230.903 144.12C230.399 142.92 229.703 141.924 228.815 141.132C227.951 140.34 226.883 139.944 225.611 139.944C224.507 139.944 223.595 140.256 222.875 140.88C222.155 141.48 221.795 142.344 221.795 143.472C221.795 144.384 222.023 145.176 222.479 145.848C222.935 146.496 223.619 147.156 224.531 147.828C225.467 148.5 226.643 149.328 228.059 150.312C229.187 151.056 230.195 151.8 231.083 152.544C231.971 153.288 232.679 154.128 233.207 155.064C233.759 156 234.035 157.128 234.035 158.448C234.035 160.032 233.603 161.352 232.739 162.408C231.875 163.44 230.735 164.22 229.319 164.748C227.903 165.252 226.355 165.504 224.675 165.504C223.115 165.504 221.867 165.36 220.931 165.072C220.019 164.784 219.239 164.484 218.591 164.172C218.063 163.836 217.655 163.668 217.367 163.668C216.983 163.668 216.719 164.196 216.575 165.252H215.747C215.795 164.652 215.819 163.956 215.819 163.164C215.843 162.348 215.855 161.304 215.855 160.032C215.879 158.76 215.891 157.14 215.891 155.172H216.719C216.815 156.804 217.079 158.328 217.511 159.744C217.967 161.16 218.651 162.312 219.563 163.2C220.499 164.064 221.735 164.496 223.271 164.496C224.567 164.496 225.623 164.172 226.439 163.524C227.255 162.876 227.663 161.94 227.663 160.716C227.663 159.228 227.159 157.992 226.151 157.008C225.167 156.024 223.895 155.016 222.335 153.984C221.207 153.24 220.151 152.484 219.167 151.716C218.183 150.948 217.391 150.096 216.791 149.16C216.215 148.2 215.927 147.048 215.927 145.704C215.927 144.168 216.323 142.908 217.115 141.924C217.907 140.94 218.951 140.22 220.247 139.764C221.567 139.284 222.959 139.044 224.423 139.044Z" fill="black"/>
<path d="M259.115 139.512C259.019 140.832 258.947 142.104 258.899 143.328C258.875 144.552 258.863 145.488 258.863 146.136C258.863 146.664 258.875 147.156 258.899 147.612C258.923 148.068 258.947 148.464 258.971 148.8H258.143C257.663 146.664 257.087 144.984 256.415 143.76C255.743 142.512 254.975 141.636 254.111 141.132C253.271 140.604 252.359 140.34 251.375 140.34H250.943V160.896C250.943 161.88 251.039 162.612 251.231 163.092C251.447 163.572 251.831 163.896 252.383 164.064C252.959 164.208 253.787 164.28 254.867 164.28V165C254.075 164.976 253.007 164.952 251.663 164.928C250.343 164.904 248.963 164.892 247.523 164.892C246.107 164.892 244.775 164.904 243.527 164.928C242.279 164.952 241.271 164.976 240.503 165V164.28C241.583 164.28 242.411 164.208 242.987 164.064C243.563 163.896 243.947 163.572 244.139 163.092C244.331 162.612 244.427 161.88 244.427 160.896V140.34H244.031C243.023 140.34 242.099 140.604 241.259 141.132C240.419 141.636 239.663 142.5 238.991 143.724C238.319 144.948 237.731 146.64 237.227 148.8H236.399C236.447 148.464 236.471 148.068 236.471 147.612C236.495 147.156 236.507 146.664 236.507 146.136C236.507 145.488 236.483 144.552 236.435 143.328C236.411 142.104 236.351 140.832 236.255 139.512C237.383 139.536 238.619 139.56 239.963 139.584C241.331 139.608 242.687 139.62 244.031 139.62C245.375 139.62 246.599 139.62 247.703 139.62C248.807 139.62 250.031 139.62 251.375 139.62C252.743 139.62 254.099 139.608 255.443 139.584C256.787 139.56 258.011 139.536 259.115 139.512Z" fill="black"/>
<path d="M280.773 139.512C280.677 140.64 280.605 141.732 280.557 142.788C280.533 143.844 280.521 144.648 280.521 145.2C280.521 145.68 280.533 146.148 280.557 146.604C280.581 147.036 280.605 147.408 280.629 147.72H279.801C279.537 145.848 279.105 144.372 278.505 143.292C277.929 142.212 277.209 141.456 276.345 141.024C275.505 140.568 274.569 140.34 273.537 140.34H272.565C271.893 140.34 271.389 140.4 271.053 140.52C270.717 140.616 270.489 140.832 270.369 141.168C270.273 141.504 270.225 142.032 270.225 142.752V161.76C270.225 162.456 270.273 162.984 270.369 163.344C270.489 163.68 270.717 163.908 271.053 164.028C271.389 164.124 271.893 164.172 272.565 164.172H274.041C274.977 164.172 275.865 163.932 276.705 163.452C277.569 162.948 278.337 162.108 279.009 160.932C279.681 159.732 280.185 158.112 280.521 156.072H281.349C281.277 156.888 281.241 157.944 281.241 159.24C281.241 159.816 281.253 160.632 281.277 161.688C281.301 162.744 281.373 163.848 281.493 165C280.269 164.952 278.889 164.928 277.353 164.928C275.817 164.904 274.449 164.892 273.249 164.892C272.409 164.892 271.281 164.892 269.865 164.892C268.473 164.892 266.997 164.904 265.437 164.928C263.877 164.928 262.425 164.952 261.081 165V164.28C261.825 164.232 262.377 164.136 262.737 163.992C263.121 163.848 263.373 163.56 263.493 163.128C263.637 162.696 263.709 162.048 263.709 161.184V143.328C263.709 142.44 263.637 141.792 263.493 141.384C263.373 140.952 263.121 140.664 262.737 140.52C262.377 140.352 261.825 140.256 261.081 140.232V139.512C262.425 139.536 263.877 139.56 265.437 139.584C266.997 139.608 268.473 139.62 269.865 139.62C271.281 139.62 272.409 139.62 273.249 139.62C274.353 139.62 275.601 139.62 276.993 139.62C278.409 139.596 279.669 139.56 280.773 139.512ZM275.337 151.824C275.337 151.824 275.337 151.944 275.337 152.184C275.337 152.424 275.337 152.544 275.337 152.544H269.145C269.145 152.544 269.145 152.424 269.145 152.184C269.145 151.944 269.145 151.824 269.145 151.824H275.337ZM276.381 147.072C276.285 148.44 276.237 149.484 276.237 150.204C276.261 150.924 276.273 151.584 276.273 152.184C276.273 152.784 276.285 153.444 276.309 154.164C276.333 154.884 276.393 155.928 276.489 157.296H275.661C275.541 156.432 275.289 155.64 274.905 154.92C274.521 154.2 274.005 153.624 273.357 153.192C272.709 152.76 271.917 152.544 270.981 152.544V151.824C271.917 151.824 272.697 151.572 273.321 151.068C273.945 150.54 274.437 149.916 274.797 149.196C275.181 148.452 275.433 147.744 275.553 147.072H276.381Z" fill="black"/>
<path d="M284.178 139.512C284.826 139.536 285.69 139.56 286.77 139.584C287.85 139.608 288.93 139.62 290.01 139.62C291.186 139.62 292.314 139.608 293.394 139.584C294.498 139.56 295.278 139.548 295.734 139.548C299.238 139.548 301.842 140.076 303.546 141.132C305.274 142.188 306.138 143.748 306.138 145.812C306.138 146.676 305.958 147.528 305.598 148.368C305.262 149.184 304.674 149.94 303.834 150.636C303.018 151.332 301.878 151.884 300.414 152.292C298.974 152.7 297.15 152.904 294.942 152.904H291.486V152.184H294.582C295.902 152.184 296.898 151.92 297.57 151.392C298.266 150.84 298.734 150.12 298.974 149.232C299.238 148.32 299.37 147.312 299.37 146.208C299.37 144.312 299.07 142.848 298.47 141.816C297.87 140.76 296.85 140.232 295.41 140.232C294.522 140.232 293.946 140.436 293.682 140.844C293.442 141.252 293.322 142.08 293.322 143.328V161.184C293.322 162.048 293.382 162.696 293.502 163.128C293.646 163.56 293.898 163.848 294.258 163.992C294.642 164.136 295.206 164.232 295.95 164.28V165C295.278 164.952 294.414 164.928 293.358 164.928C292.326 164.904 291.282 164.892 290.226 164.892C289.002 164.892 287.85 164.904 286.77 164.928C285.69 164.928 284.826 164.952 284.178 165V164.28C284.922 164.232 285.474 164.136 285.834 163.992C286.218 163.848 286.47 163.56 286.59 163.128C286.734 162.696 286.806 162.048 286.806 161.184V143.328C286.806 142.44 286.734 141.792 286.59 141.384C286.47 140.952 286.218 140.664 285.834 140.52C285.474 140.352 284.922 140.256 284.178 140.232V139.512ZM291.342 152.292C292.278 152.316 293.13 152.364 293.898 152.436C294.666 152.508 295.35 152.58 295.95 152.652C296.574 152.7 297.114 152.736 297.57 152.76C299.946 152.904 301.71 153.36 302.862 154.128C304.038 154.872 304.782 155.988 305.094 157.476L305.85 161.22C306.066 162.132 306.294 162.78 306.534 163.164C306.774 163.524 307.11 163.692 307.542 163.668C307.806 163.668 308.034 163.62 308.226 163.524C308.418 163.404 308.61 163.236 308.802 163.02L309.306 163.488C308.61 164.232 307.854 164.748 307.038 165.036C306.222 165.348 305.274 165.504 304.194 165.504C302.778 165.504 301.614 165.228 300.702 164.676C299.814 164.124 299.25 163.104 299.01 161.616L298.398 158.016C298.254 157.032 298.062 156.156 297.822 155.388C297.606 154.62 297.306 154.02 296.922 153.588C296.538 153.132 295.998 152.904 295.302 152.904H291.414L291.342 152.292Z" fill="black"/>
<path d="M329.786 139.476V140.196C329.258 140.436 328.694 140.904 328.094 141.6C327.518 142.272 326.882 143.292 326.186 144.66L319.526 157.836H317.474L309.05 142.248C308.642 141.456 308.258 140.928 307.898 140.664C307.538 140.376 307.226 140.232 306.962 140.232V139.476C307.658 139.548 308.378 139.608 309.122 139.656C309.866 139.68 310.682 139.692 311.57 139.692C312.722 139.692 313.958 139.668 315.278 139.62C316.598 139.572 317.81 139.524 318.914 139.476V140.232C318.314 140.232 317.762 140.268 317.258 140.34C316.778 140.412 316.43 140.556 316.214 140.772C316.022 140.988 316.046 141.348 316.286 141.852L321.866 152.544L320.462 154.38L323.846 147.612C324.782 145.764 325.286 144.312 325.358 143.256C325.454 142.176 325.226 141.408 324.674 140.952C324.146 140.472 323.402 140.22 322.442 140.196V139.476C323.306 139.5 324.086 139.524 324.782 139.548C325.502 139.572 326.258 139.584 327.05 139.584C327.554 139.584 328.046 139.572 328.526 139.548C329.006 139.524 329.426 139.5 329.786 139.476ZM322.37 151.5V161.184C322.37 162.048 322.43 162.696 322.55 163.128C322.694 163.56 322.946 163.848 323.306 163.992C323.69 164.136 324.254 164.232 324.998 164.28V165C324.326 164.952 323.438 164.928 322.334 164.928C321.254 164.904 320.186 164.892 319.13 164.892C317.954 164.892 316.826 164.904 315.746 164.928C314.69 164.928 313.85 164.952 313.226 165V164.28C313.97 164.232 314.522 164.136 314.882 163.992C315.266 163.848 315.518 163.56 315.638 163.128C315.782 162.696 315.854 162.048 315.854 161.184V153.804L319.382 156.036L322.37 151.5Z" fill="black"/>
<path d="M332.89 159.636C333.922 159.636 334.726 159.888 335.302 160.392C335.902 160.896 336.202 161.616 336.202 162.552C336.202 163.512 335.902 164.244 335.302 164.748C334.726 165.252 333.922 165.504 332.89 165.504C331.834 165.504 331.018 165.252 330.442 164.748C329.866 164.244 329.578 163.512 329.578 162.552C329.578 161.616 329.866 160.896 330.442 160.392C331.018 159.888 331.834 159.636 332.89 159.636Z" fill="black"/>
<path d="M168.472 185.18C169.336 185.18 170.104 185.312 170.776 185.576C171.448 185.84 171.988 186.152 172.396 186.512C172.66 186.704 172.876 186.8 173.044 186.8C173.476 186.8 173.74 186.272 173.836 185.216H174.664C174.568 186.392 174.52 188.432 174.52 191.336H173.692C173.428 189.752 172.912 188.444 172.144 187.412C171.4 186.38 170.284 185.864 168.796 185.864C167.932 185.864 167.224 186.116 166.672 186.62C166.12 187.1 165.844 187.772 165.844 188.636C165.844 189.476 166.132 190.184 166.708 190.76C167.284 191.312 168.208 191.984 169.48 192.776C169.696 192.896 170.02 193.1 170.452 193.388C171.556 194.108 172.444 194.744 173.116 195.296C173.788 195.848 174.328 196.484 174.736 197.204C175.168 197.924 175.384 198.752 175.384 199.688C175.384 201.272 174.784 202.508 173.584 203.396C172.408 204.284 170.956 204.728 169.228 204.728C168.148 204.728 167.2 204.56 166.384 204.224C165.856 203.96 165.364 203.636 164.908 203.252C164.812 203.156 164.704 203.108 164.584 203.108C164.416 203.108 164.26 203.228 164.116 203.468C163.996 203.708 163.9 204.044 163.828 204.476H163C163.096 203.108 163.144 200.708 163.144 197.276H163.972C164.236 199.532 164.716 201.224 165.412 202.352C166.108 203.456 167.296 204.008 168.976 204.008C169.816 204.008 170.56 203.732 171.208 203.18C171.856 202.628 172.18 201.764 172.18 200.588C172.18 199.652 171.856 198.86 171.208 198.212C170.584 197.564 169.552 196.784 168.112 195.872C166.936 195.128 166.024 194.516 165.376 194.036C164.752 193.556 164.224 192.968 163.792 192.272C163.36 191.576 163.144 190.76 163.144 189.824C163.144 188.312 163.648 187.16 164.656 186.368C165.664 185.576 166.936 185.18 168.472 185.18Z" fill="black"/>
<path d="M183.926 185.72H189.254V186.44H183.926V200.372C183.926 201.452 184.118 202.232 184.502 202.712C184.91 203.192 185.486 203.432 186.23 203.432C186.974 203.432 187.61 203.132 188.138 202.532C188.666 201.932 189.11 200.948 189.47 199.58L190.19 199.76C189.59 203.072 188.03 204.728 185.51 204.728C184.694 204.728 184.022 204.632 183.494 204.44C182.966 204.248 182.498 203.948 182.09 203.54C181.562 203.012 181.19 202.364 180.974 201.596C180.782 200.828 180.686 199.796 180.686 198.5V186.44H177.23V185.72H180.686V180.212C182.03 180.164 183.11 179.996 183.926 179.708V185.72Z" fill="black"/>
<path d="M207.2 200.336C207.2 201.44 207.404 202.244 207.812 202.748C208.22 203.252 208.928 203.504 209.936 203.504V204.26C209.192 204.188 208.448 204.152 207.704 204.152C206.192 204.152 204.944 204.32 203.96 204.656V200.408C203.384 201.896 202.568 202.988 201.512 203.684C200.456 204.38 199.304 204.728 198.056 204.728C196.424 204.728 195.176 204.272 194.312 203.36C193.88 202.88 193.568 202.268 193.376 201.524C193.208 200.78 193.124 199.82 193.124 198.644V189.608C193.124 188.504 192.92 187.7 192.512 187.196C192.104 186.692 191.396 186.44 190.388 186.44V185.684C191.132 185.756 191.876 185.792 192.62 185.792C194.132 185.792 195.38 185.624 196.364 185.288V199.436C196.364 200.348 196.412 201.092 196.508 201.668C196.628 202.22 196.88 202.676 197.264 203.036C197.672 203.396 198.284 203.576 199.1 203.576C200.012 203.576 200.84 203.288 201.584 202.712C202.328 202.136 202.904 201.356 203.312 200.372C203.744 199.364 203.96 198.26 203.96 197.06V189.608C203.96 188.504 203.756 187.7 203.348 187.196C202.94 186.692 202.232 186.44 201.224 186.44V185.684C201.968 185.756 202.712 185.792 203.456 185.792C204.968 185.792 206.216 185.624 207.2 185.288V200.336Z" fill="black"/>
<path d="M228.154 200.3C228.154 201.404 228.358 202.208 228.766 202.712C229.174 203.216 229.882 203.468 230.89 203.468V204.224C230.146 204.152 229.402 204.116 228.658 204.116C227.146 204.116 225.898 204.284 224.914 204.62V201.416C224.482 202.496 223.834 203.324 222.97 203.9C222.106 204.452 221.05 204.728 219.802 204.728C217.498 204.728 215.686 203.9 214.366 202.244C213.07 200.588 212.434 198.164 212.458 194.972C212.458 192.884 212.818 191.108 213.538 189.644C214.282 188.156 215.266 187.04 216.49 186.296C217.738 185.552 219.106 185.18 220.594 185.18C221.506 185.18 222.334 185.36 223.078 185.72C223.846 186.056 224.458 186.584 224.914 187.304V180.32C224.914 179.216 224.71 178.412 224.302 177.908C223.894 177.404 223.186 177.152 222.178 177.152V176.396C222.946 176.468 223.69 176.504 224.41 176.504C225.922 176.504 227.17 176.336 228.154 176V200.3ZM220.846 203.648C221.782 203.648 222.622 203.288 223.366 202.568C224.11 201.848 224.626 200.828 224.914 199.508V188.78C224.266 186.932 222.922 186.008 220.882 186.008C219.394 186.008 218.194 186.776 217.282 188.312C216.37 189.824 215.926 192.044 215.95 194.972C215.926 197.852 216.334 200.024 217.174 201.488C218.014 202.928 219.238 203.648 220.846 203.648Z" fill="black"/>
<path d="M236.796 176.684C237.42 176.684 237.96 176.912 238.416 177.368C238.872 177.824 239.1 178.364 239.1 178.988C239.1 179.612 238.872 180.152 238.416 180.608C237.96 181.064 237.42 181.292 236.796 181.292C236.172 181.292 235.632 181.064 235.176 180.608C234.72 180.152 234.492 179.612 234.492 178.988C234.492 178.364 234.72 177.824 235.176 177.368C235.632 176.912 236.172 176.684 236.796 176.684ZM238.668 200.876C238.668 201.86 238.872 202.544 239.28 202.928C239.688 203.288 240.396 203.468 241.404 203.468V204.224C239.196 204.128 237.744 204.08 237.048 204.08C236.352 204.08 234.9 204.128 232.692 204.224V203.468C233.7 203.468 234.408 203.288 234.816 202.928C235.224 202.544 235.428 201.86 235.428 200.876V189.608C235.428 188.504 235.224 187.7 234.816 187.196C234.408 186.692 233.7 186.44 232.692 186.44V185.684C233.46 185.756 234.204 185.792 234.924 185.792C236.436 185.792 237.684 185.624 238.668 185.288V200.876Z" fill="black"/>
<path d="M252.059 185.18C254.507 185.18 256.475 185.996 257.963 187.628C259.475 189.236 260.231 191.684 260.231 194.972C260.231 198.26 259.475 200.708 257.963 202.316C256.475 203.924 254.507 204.728 252.059 204.728C249.611 204.728 247.631 203.924 246.119 202.316C244.631 200.708 243.887 198.26 243.887 194.972C243.887 191.684 244.631 189.236 246.119 187.628C247.631 185.996 249.611 185.18 252.059 185.18ZM252.059 185.9C250.619 185.9 249.479 186.644 248.639 188.132C247.799 189.596 247.379 191.876 247.379 194.972C247.379 198.068 247.799 200.348 248.639 201.812C249.479 203.276 250.619 204.008 252.059 204.008C253.499 204.008 254.639 203.276 255.479 201.812C256.319 200.348 256.739 198.068 256.739 194.972C256.739 191.876 256.319 189.596 255.479 188.132C254.639 186.644 253.499 185.9 252.059 185.9Z" fill="black"/>
<path fill-rule="evenodd" clip-rule="evenodd" d="M103.252 39.0956H0V204.5H103.252V39.0956Z" fill="black"/>
<path fill-rule="evenodd" clip-rule="evenodd" d="M101.749 3.00735C69.3609 3.00735 43.1054 29.2629 43.1054 61.6507C43.1054 94.0386 69.3609 120.294 101.749 120.294C134.137 120.294 160.392 94.0386 160.392 61.6507C160.392 29.2629 134.137 3.00735 101.749 3.00735ZM40.0981 61.6507C40.0981 27.602 67.7 0 101.749 0C135.798 0 163.4 27.602 163.4 61.6507C163.4 95.6995 135.798 123.301 101.749 123.301C67.7 123.301 40.0981 95.6995 40.0981 61.6507Z" fill="#C98F39"/>
<path fill-rule="evenodd" clip-rule="evenodd" d="M103.252 39.0956H44.3453L43.9801 40.0729C41.4698 46.7907 40.0981 54.0623 40.0981 61.6507C40.0981 95.6995 67.7 123.301 101.749 123.301H103.252V39.0956Z" fill="#C98F39"/>
</svg>
