<svg width="53" height="66" viewBox="0 0 53 66" fill="none" xmlns="http://www.w3.org/2000/svg">
<path fill-rule="evenodd" clip-rule="evenodd" d="M33.0711 12.522H0V65.5H33.0711V12.522Z" fill="black"/>
<path fill-rule="evenodd" clip-rule="evenodd" d="M32.5895 0.963235C22.2158 0.963235 13.8064 9.37271 13.8064 19.7463C13.8064 30.1199 22.2158 38.5294 32.5895 38.5294C42.9631 38.5294 51.3726 30.1199 51.3726 19.7463C51.3726 9.37271 42.9631 0.963235 32.5895 0.963235ZM12.8431 19.7463C12.8431 8.84073 21.6839 0 32.5895 0C43.4951 0 52.3358 8.84073 52.3358 19.7463C52.3358 30.6519 43.4951 39.4926 32.5895 39.4926C21.6839 39.4926 12.8431 30.6519 12.8431 19.7463Z" fill="#C98F39"/>
<path fill-rule="evenodd" clip-rule="evenodd" d="M33.0711 12.522H14.2035L14.0865 12.8351C13.2825 14.9867 12.8431 17.3158 12.8431 19.7463C12.8431 30.6519 21.6839 39.4926 32.5895 39.4926H33.0711V12.522Z" fill="#C98F39"/>
</svg>
